# xmcd
#
# Track frame offsets:
#	150
#	22040
#	37834
#	55350
#	72197
#	90247
#	108566
#	134196
#	161758
#	182851
#	194377
#
# Disc length: 2982 seconds
#
# Revision: 1
# Processed by: cddbd v1.5.2PL0 Copyright (c) Steve Scherf et al.
# Submitted via: audiograbber 1.83.01
#
DISCID=9b0ba40b
DTITLE=Cdpool - Street July 09 CD1
DYEAR=2009
DGENRE=R&B
TTITLE0=Black Eyed Peas - I Gotta Feeling (Album Version)
TTITLE1=Flo Rida Ft Nelly Furtado - Jump (Album Version)
TTITLE2=Rachel Claudio - Gotcha (The Jaffers Old School Mix)
TTITLE3=Mica Paris - Tonight (Album Version)
TTITLE4=Leon Grant - Addicted
TTITLE5=Major Not£$ Ft Koni - Meet Me On The Dancefloor (Radio Edit)
TTITLE6=Spoonface Ft Jo'Leon Davenue - She Want My Lovin' (Original)
TTITLE7=Buraka Som Sistema - IC 19 (A1 Bassline Attack Mix)
TTITLE8=Maxwell D - Txt Txt Txt
TTITLE9=Sharron Woolf - Sweet Like Chocolate (Crazy Cousinz Radio Edit)
TTITLE10=Marco Del Horno Ft Katie Leone - Never Gonna Let You Go (Fas V DJ Gree
TTITLE10=f Bassline Remix)
EXTD=
EXTT0=
EXTT1=
EXTT2=
EXTT3=
EXTT4=
EXTT5=
EXTT6=
EXTT7=
EXTT8=
EXTT9=
EXTT10=
PLAYORDER=
